<svg fill="none" xmlns="http://www.w3.org/2000/svg" viewBox="0 0 589 382">
  <path fill="#5A51FF" stroke="#000" stroke-width="2" d="M415.882 282.882h98v98h-98z" />
  <path fill="#FE7362" stroke="#000" stroke-width="2" d="M410 277h98v98h-98z" />
  <path fill="#5A51FF" stroke="#000" stroke-width="2" d="M508 350.529v6.824h-98v-6.824z" />
  <mask id="aa" fill="#fff">
    <path fill-rule="evenodd" clip-rule="evenodd" d="M433.274 342.278c0-4.929 5.512-8.925 12.312-8.925s12.312 3.996 12.312 8.925h-24.624z" />
  </mask>
  <path fill-rule="evenodd" clip-rule="evenodd" d="M433.274 342.278c0-4.929 5.512-8.925 12.312-8.925s12.312 3.996 12.312 8.925h-24.624z" fill="#5A51FF" />
  <path d="M433.274 342.278v2h-2v-2h2zm24.624 0h2v2h-2v-2zm-12.312-6.925c-3.025 0-5.681.892-7.532 2.233-1.854 1.344-2.78 3.028-2.78 4.692h-4c0-3.265 1.829-6.044 4.432-7.93 2.605-1.889 6.105-2.995 9.88-2.995v4zm10.312 6.925c0-1.664-.927-3.348-2.78-4.692-1.851-1.341-4.508-2.233-7.532-2.233v-4c3.775 0 7.275 1.106 9.88 2.995 2.602 1.886 4.432 4.665 4.432 7.93h-4zm2 2h-24.624v-4h24.624v4z" fill="#000" mask="url(#aa)" />
  <path fill="#5A51FF" stroke="#000" stroke-width="2" d="M482.059 277h6.824v98h-6.824z" />
  <circle cx="462.676" cy="323.794" fill="#000" r="3.676" />
  <circle cx="428.853" cy="323.794" r="3.676" fill="#000" />
  <path fill="#5A51FF" stroke="#000" stroke-width="2" d="M489.882 144.882h98v98h-98z" />
  <path fill="#FE7362" stroke="#000" stroke-width="2" d="M484 139h98v98h-98z" />
  <path fill="#5A51FF" stroke="#000" stroke-width="2" d="M582 212.529v6.824h-98v-6.824z" />
  <mask id="ab" fill="#fff">
    <path fill-rule="evenodd" clip-rule="evenodd" d="M507.274 204.278c0-4.929 5.512-8.925 12.312-8.925s12.312 3.996 12.312 8.925h-24.624z" />
  </mask>
  <path fill-rule="evenodd" clip-rule="evenodd" d="M507.274 204.278c0-4.929 5.512-8.925 12.312-8.925s12.312 3.996 12.312 8.925h-24.624z" fill="#5A51FF" />
  <path d="M507.274 204.278v2h-2v-2h2zm24.624 0h2v2h-2v-2zm-12.312-6.925c-3.025 0-5.681.892-7.532 2.233-1.854 1.344-2.78 3.028-2.78 4.692h-4c0-3.265 1.829-6.044 4.432-7.93 2.605-1.889 6.105-2.995 9.88-2.995v4zm10.312 6.925c0-1.664-.927-3.348-2.78-4.692-1.851-1.341-4.508-2.233-7.532-2.233v-4c3.775 0 7.275 1.106 9.88 2.995 2.602 1.886 4.432 4.665 4.432 7.93h-4zm2 2h-24.624v-4h24.624v4z" fill="#000" mask="url(#ab)" />
  <path fill="#5A51FF" stroke="#000" stroke-width="2" d="M556.059 139h6.824v98h-6.824z" />
  <circle cx="536.676" cy="185.794" fill="#000" r="3.676" />
  <circle cx="502.853" cy="185.794" r="3.676" fill="#000" />
  <path fill="#5A51FF" stroke="#000" stroke-width="2" d="M415.882 6.882h98v98h-98z" />
  <path fill="#FE7362" stroke="#000" stroke-width="2" d="M410 1h98v98h-98z" />
  <path fill="#5A51FF" stroke="#000" stroke-width="2" d="M508 74.53v6.823h-98V74.53z" />
  <mask id="ac" fill="#fff">
    <path fill-rule="evenodd" clip-rule="evenodd" d="M433.274 57.353c0 4.929 5.512 8.925 12.312 8.925s12.312-3.996 12.312-8.925h-24.624z" />
  </mask>
  <path fill-rule="evenodd" clip-rule="evenodd" d="M433.274 57.353c0 4.929 5.512 8.925 12.312 8.925s12.312-3.996 12.312-8.925h-24.624z" fill="#5A51FF" />
  <path d="M433.274 57.353v-2h-2v2h2zm24.624 0h2v-2h-2v2zm-12.312 6.925c-3.025 0-5.681-.892-7.532-2.234-1.854-1.343-2.78-3.027-2.78-4.691h-4c0 3.265 1.829 6.043 4.432 7.93 2.605 1.888 6.105 2.995 9.88 2.995v-4zm10.312-6.925c0 1.664-.927 3.348-2.78 4.691-1.851 1.342-4.508 2.234-7.532 2.234v4c3.775 0 7.275-1.107 9.88-2.995 2.602-1.887 4.432-4.665 4.432-7.93h-4zm2-2h-24.624v4h24.624v-4z" fill="#000" mask="url(#ac)" />
  <path fill="#5A51FF" stroke="#000" stroke-width="2" d="M482.059 1h6.824v98h-6.824z" />
  <path fill-rule="evenodd" clip-rule="evenodd" d="M426.114 49.224l-1.666.046a4.166 4.166 0 118.33-.229l-1.666.046a2.5 2.5 0 10-4.998.137zM462.896 44.935a4.167 4.167 0 00-4.051 4.28l1.666-.046a2.501 2.501 0 014.999-.137l1.666-.046a4.167 4.167 0 00-4.28-4.05z" fill="#000" />
  <path fill="#5A51FF" stroke="#000" stroke-width="2" d="M159.66 101.82L2.048 139.27l37.45 157.611 157.612-37.45z" />
  <path fill="#FE7362" stroke="#000" stroke-width="2" d="M166.816 90.204L9.204 127.654l37.45 157.611 157.612-37.449z" />
  <path fill="#5A51FF" stroke="#000" stroke-width="2" d="M37.08 244.975l2.884 12.133 157.612-37.45-2.883-12.133z" />
  <mask id="ad" fill="#fff">
    <path fill-rule="evenodd" clip-rule="evenodd" d="M150.571 189.714c1.868 7.864-5.412 16.33-16.262 18.908-10.849 2.578-21.159-1.708-23.028-9.573l39.29-9.335z" />
  </mask>
  <path fill-rule="evenodd" clip-rule="evenodd" d="M150.571 189.714c1.868 7.864-5.412 16.33-16.262 18.908-10.849 2.578-21.159-1.708-23.028-9.573l39.29-9.335z" fill="#5A51FF" />
  <path d="M150.571 189.714l-.463-1.946 1.946-.462.463 1.945-1.946.463zm-39.29 9.335l-1.946.463-.462-1.946 1.946-.463.462 1.946zm22.566 7.627c5.06-1.202 9.207-3.761 11.846-6.83 2.641-3.071 3.681-6.516 2.932-9.67l3.892-.925c1.119 4.711-.547 9.431-3.791 13.203-3.247 3.775-8.164 6.738-13.954 8.114l-.925-3.892zm-20.62-8.089c.749 3.153 3.228 5.763 6.968 7.318 3.737 1.553 8.592 1.973 13.652.771l.925 3.892c-5.79 1.375-11.515.941-16.112-.97-4.595-1.91-8.206-5.375-9.325-10.086l3.892-.925zm-2.408-1.484l39.289-9.335.925 3.892-39.29 9.335-.924-3.892z" fill="#000" mask="url(#ad)" />
  <path fill="#5A51FF" stroke="#000" stroke-width="2" d="M51.84 117.523l-12.132 2.883 37.449 157.612 12.133-2.883z" />
  <path fill-rule="evenodd" clip-rule="evenodd" d="M158.913 174.029l2.676-.559a6.833 6.833 0 00-13.378 2.794l2.675-.559a4.1 4.1 0 118.027-1.676zM104.008 186.982l2.676-.559a6.834 6.834 0 00-13.378 2.794l2.675-.559a4.1 4.1 0 118.027-1.676z" fill="#000" />
  <path d="M275.5 189.5h-63m117-51C325.833 119.5 332 77 386 59m-56.5 186c-5.833 22.333 12.5 71.1 56.5 83.5m-9-139h86.5" stroke="#C4C4C4" stroke-width="4" stroke-dasharray="12 3" />
  <circle cx="342" cy="89" r="23" fill="#44BD7C" stroke="#C4C4C4" stroke-width="2" />
  <path d="M350.8 79.4l-12 12-5.6-5.6-4 4 9.6 9.6 16-16-4-4z" fill="#fff" />
  <circle cx="327" cy="188" r="58" fill="#fff" stroke="#C4C4C4" stroke-width="4" />
  <path d="M320.83 206.629c.045-.406.073-.818.073-1.236 0-.419-.028-.831-.074-1.237l-3.117-1.109a8.136 8.136 0 00-.605-1.459l1.418-2.985a11.11 11.11 0 00-1.75-1.752l-2.985 1.421a8.015 8.015 0 00-1.459-.605l-1.108-3.117a10.984 10.984 0 00-1.237-.075c-.419 0-.83.029-1.237.075l-1.108 3.117c-.51.155-.997.358-1.46.605l-2.985-1.421a11.039 11.039 0 00-1.752 1.752l1.422 2.983a8.065 8.065 0 00-.606 1.46l-3.117 1.111a11.19 11.19 0 00-.075 1.236c0 .418.029.83.075 1.236l3.117 1.11c.155.509.358.997.606 1.459l-1.421 2.985a10.984 10.984 0 001.752 1.75l2.982-1.42a8.14 8.14 0 001.46.607l1.109 3.116c.406.045.818.073 1.237.073.419 0 .83-.028 1.236-.074l1.11-3.117a8.197 8.197 0 001.459-.605l2.985 1.418a11.013 11.013 0 001.75-1.75l-1.419-2.984a7.98 7.98 0 00.607-1.46l3.116-1.108h.001zm-10.844 2.231a3.467 3.467 0 01-2.454-5.92 3.47 3.47 0 015.921 2.451 3.467 3.467 0 01-3.467 3.469zM361.682 190.544c.081-.735.133-1.481.133-2.24 0-.759-.052-1.505-.134-2.242l-5.65-2.009a14.894 14.894 0 00-1.097-2.646l2.57-5.41a20.046 20.046 0 00-3.172-3.174l-5.41 2.576a14.38 14.38 0 00-2.645-1.097l-2.008-5.65a19.992 19.992 0 00-2.242-.136c-.759 0-1.505.052-2.242.136l-2.008 5.65c-.924.28-1.807.648-2.646 1.097l-5.411-2.576c-1.174.935-2.238 2-3.175 3.174l2.576 5.408a14.652 14.652 0 00-1.097 2.645l-5.65 2.014a20.215 20.215 0 00-.135 2.241c0 .758.052 1.504.135 2.241l5.65 2.01c.281.923.648 1.807 1.097 2.646l-2.574 5.41c.935 1.174 2 2.237 3.175 3.172l5.406-2.574a14.6 14.6 0 002.645 1.099l2.011 5.649c.736.081 1.481.133 2.242.133.758 0 1.503-.052 2.24-.134l2.011-5.65a14.946 14.946 0 002.645-1.097l5.41 2.57a19.95 19.95 0 003.172-3.172l-2.572-5.409c.449-.834.819-1.721 1.1-2.645l5.649-2.01h.001zm-19.655 4.045a6.285 6.285 0 11-.004-12.57 6.285 6.285 0 01.004 12.57zM321.28 175.361c.06-.543.098-1.093.098-1.653s-.038-1.11-.099-1.654l-4.168-1.482a10.82 10.82 0 00-.809-1.951l1.897-3.991a14.851 14.851 0 00-2.34-2.342l-3.991 1.9a10.618 10.618 0 00-1.951-.809l-1.482-4.168a14.79 14.79 0 00-1.653-.1c-.56 0-1.11.038-1.654.1l-1.481 4.168c-.682.207-1.333.478-1.952.809l-3.991-1.9a14.738 14.738 0 00-2.342 2.342l1.9 3.989a10.736 10.736 0 00-.809 1.951l-4.168 1.485c-.061.543-.1 1.095-.1 1.654 0 .559.038 1.109.1 1.653l4.168 1.483c.206.681.478 1.333.809 1.952l-1.899 3.99c.69.867 1.475 1.65 2.342 2.34l3.987-1.899c.619.331 1.271.604 1.952.811l1.483 4.167c.543.06 1.093.098 1.654.098.559 0 1.109-.038 1.652-.099l1.484-4.168c.68-.207 1.332-.48 1.951-.809l3.991 1.896a14.796 14.796 0 002.34-2.34l-1.898-3.989c.332-.616.604-1.27.811-1.952l4.167-1.482h.001zm-14.498 2.983a4.64 4.64 0 01-3.279-1.357 4.637 4.637 0 113.279 1.357z" fill="#5A51FF" />
</svg>
