<svg focusable="false" xmlns="http://www.w3.org/2000/svg" viewBox="0 0 144 144">
    <path fill="#5A51FF" stroke="#000" stroke-width="2" d="M9 9h134v134H9z" />
    <path fill="#FE7362" stroke="#000" stroke-width="2" d="M1 1h134v134H1V1z" />
    <path fill="#5A51FF" stroke="#000" stroke-width="2" d="M135 101v10H1v-10h134zM49.757 89.138c-4.436 0-8.412-1.305-11.253-3.365-2.52-1.826-4.1-4.202-4.428-6.773h31.362c-.328 2.571-1.909 4.947-4.428 6.773-2.842 2.06-6.817 3.365-11.253 3.365z" />
    <path fill="#5A51FF" stroke="#000" stroke-width="2" d="M99 1h10v134H99z" />
    <path fill="#000" d="M78 65a5 5 0 11-10 0 5 5 0 0110 0zM32 65a5 5 0 11-10 0 5 5 0 0110 0z" />
</svg>
