<svg fill="none" xmlns="http://www.w3.org/2000/svg" viewBox="0 0 432 372">
  <path fill="#5A51FF" stroke="#000" stroke-width="2" d="M165.543 134.563L36.11 99.881 1.427 229.315l129.435 34.682z"/>
  <path fill="#FE7362" stroke="#000" stroke-width="2" d="M175.341 128.906L45.907 94.224 11.225 223.658 140.66 258.34z"/>
  <path fill="#5A51FF" stroke="#000" stroke-width="2" d="M20.025 190.817l-2.588 9.66 129.434 34.681 2.588-9.66z"/>
  <mask id="a" fill="#fff">
    <path fill-rule="evenodd" clip-rule="evenodd" d="M124.49 194.997c-1.735 6.475-10.383 9.784-19.315 7.391-8.933-2.394-14.768-9.583-13.033-16.058l32.348 8.667z"/>
  </mask>
  <path fill-rule="evenodd" clip-rule="evenodd" d="M124.49 194.997c-1.735 6.475-10.383 9.784-19.315 7.391-8.933-2.394-14.768-9.583-13.033-16.058l32.348 8.667z" fill="#5A51FF"/>
  <path d="M124.49 194.997l.518-1.931 1.931.517-.517 1.932-1.932-.518zm-32.348-8.667l-1.932-.518.518-1.932 1.932.518-.518 1.932zm13.55 14.126c4.104 1.1 8.064.865 11.125-.306 3.063-1.172 5.081-3.206 5.741-5.67l3.864 1.035c-1.075 4.011-4.248 6.868-8.176 8.371-3.93 1.504-8.76 1.728-13.589.434l1.035-3.864zm-11.618-13.609c-.66 2.465.07 5.236 2.137 7.782 2.065 2.544 5.377 4.727 9.481 5.827l-1.035 3.864c-4.829-1.294-8.9-3.903-11.552-7.17-2.65-3.266-3.97-7.327-2.895-11.338l3.864 1.035zm-1.414-2.449l32.348 8.668-1.036 3.863-32.347-8.667 1.035-3.864z" fill="#000" mask="url(#a)"/>
  <path fill="#5A51FF" stroke="#000" stroke-width="2" d="M80.68 103.542l-9.66-2.588-34.68 129.434 9.658 2.588z"/>
  <circle r="5" transform="scale(-1 1) rotate(-15 608.966 424.928)" fill="#000"/>
  <circle r="5" transform="scale(-1 1) rotate(-15 631.963 599.63)" fill="#000"/>
  <path fill="#5A51FF" stroke="#000" stroke-width="2" d="M339.08 230.961l91.454 21.73-21.73 91.454-91.454-21.73z"/>
  <path fill="#FE7362" stroke="#000" stroke-width="2" d="M334.891 224.161l91.454 21.73-21.73 91.454-91.454-21.73z"/>
  <path fill="#5A51FF" stroke="#000" stroke-width="2" d="M410.027 314.568l-1.496 6.296-91.454-21.73 1.496-6.296z"/>
  <mask id="b" fill="#fff">
    <path fill-rule="evenodd" clip-rule="evenodd" d="M344.093 281.912c-1.094 4.603 3.168 9.559 9.519 11.068 6.351 1.509 12.386-1 13.48-5.604l-22.999-5.464z"/>
  </mask>
  <path fill-rule="evenodd" clip-rule="evenodd" d="M344.093 281.912c-1.094 4.603 3.168 9.559 9.519 11.068 6.351 1.509 12.386-1 13.48-5.604l-22.999-5.464z" fill="#5A51FF"/>
  <path d="M344.093 281.912l.463-1.946-1.946-.462-.462 1.945 1.945.463zm22.999 5.464l1.946.463.462-1.946-1.945-.462-.463 1.945zm-13.017 3.658c-2.811-.668-5.079-2.082-6.498-3.732-1.42-1.652-1.9-3.405-1.538-4.928l-3.891-.925c-.732 3.081.372 6.108 2.397 8.461 2.026 2.356 5.064 4.174 8.605 5.016l.925-3.892zm11.071-4.12c-.361 1.523-1.578 2.873-3.59 3.71-2.009.835-4.671 1.078-7.481.41l-.925 3.892c3.54.841 7.072.584 9.941-.609 2.867-1.192 5.215-3.398 5.947-6.478l-3.892-.925zm2.409-1.483l-22.999-5.465-.925 3.892 22.999 5.464.925-3.891z" fill="#000" mask="url(#b)"/>
  <path fill="#5A51FF" stroke="#000" stroke-width="2" d="M402.194 240.153l6.296 1.496-21.73 91.454-6.296-1.496z"/>
  <path fill-rule="evenodd" clip-rule="evenodd" d="M342.377 269.305a4.002 4.002 0 013.098 4.734l-1.566-.327a2.4 2.4 0 00-4.699-.982l-1.566-.327a4 4 0 014.733-3.098zM374.516 276.888a3.999 3.999 0 013.098 4.733l-1.566-.327a2.4 2.4 0 10-4.699-.982l-1.566-.327a4 4 0 014.733-3.097z" fill="#000"/>
  <path fill="#5A51FF" stroke="#000" stroke-width="2" d="M259.551 106.689l92.982-13.796 13.796 92.982-92.982 13.796z"/>
  <path fill="#FE7362" stroke="#000" stroke-width="2" d="M253.136 101.932l92.982-13.796 13.796 92.982-92.982 13.796z"/>
  <path fill="#5A51FF" stroke="#000" stroke-width="2" d="M356.478 157.96l.95 6.4-92.982 13.797-.95-6.4z"/>
  <mask id="c" fill="#fff">
    <path fill-rule="evenodd" clip-rule="evenodd" d="M283.131 152.132c.695 4.681 6.492 7.699 12.949 6.741 6.458-.959 11.129-5.53 10.435-10.21l-23.384 3.469z"/>
  </mask>
  <path fill-rule="evenodd" clip-rule="evenodd" d="M283.131 152.132c.695 4.681 6.492 7.699 12.949 6.741 6.458-.959 11.129-5.53 10.435-10.21l-23.384 3.469z" fill="#5A51FF"/>
  <path d="M283.131 152.132l-.293-1.978-1.979.293.294 1.979 1.978-.294zm23.384-3.469l1.978-.294-.294-1.978-1.978.293.294 1.979zm-10.728 8.231c-2.857.424-5.488-.046-7.419-1.051-1.932-1.006-3.029-2.456-3.258-4.004l-3.957.587c.465 3.132 2.615 5.531 5.369 6.965 2.756 1.435 6.252 1.994 9.852 1.46l-.587-3.957zm8.749-7.938c.23 1.549-.398 3.254-1.955 4.778-1.556 1.522-3.937 2.736-6.794 3.16l.587 3.957c3.6-.534 6.783-2.085 9.004-4.258 2.219-2.171 3.58-5.092 3.115-8.224l-3.957.587zm1.685-2.272l-23.383 3.47.587 3.957 23.383-3.47-.587-3.957z" fill="#000" mask="url(#c)"/>
  <path fill="#5A51FF" stroke="#000" stroke-width="2" d="M321.563 91.779l6.4-.95 13.797 92.982-6.4.95z"/>
  <path fill-rule="evenodd" clip-rule="evenodd" d="M276.855 141.065a4 4 0 014.634 3.244l-1.575.278a2.401 2.401 0 00-4.727.835l-1.576.278a4 4 0 013.244-4.635zM309.511 136.167a4 4 0 014.635 3.243l-1.576.279a2.4 2.4 0 10-4.727.834l-1.575.278a4 4 0 013.243-4.634z" fill="#000"/>
  <path d="M110 87.021c16.525-27.047 71.479-67.02 159.091-10.535M73 266c16.206 32.926 82.895 87.704 220 43.403" stroke="#C4C4C4" stroke-width="4" stroke-dasharray="12 3"/>
  <circle cx="185.5" cy="46.5" r="44.5" fill="#fff" stroke="#C4C4C4" stroke-width="4"/>
  <path d="M208 28h-45.977L162 65h46V28zm-4.6 32.375h-36.8V37.25L185 48.813l18.4-11.563v23.125zM185 44.187l-18.4-11.562h36.8L185 44.188z" fill="#5A51FF"/>
  <circle cx="183.5" cy="325.5" r="44.5" fill="#fff" stroke="#C4C4C4" stroke-width="4"/>
  <path d="M206 307h-45.977L160 344h46v-37zm-4.6 32.375h-36.8V316.25l18.4 11.562 18.4-11.562v23.125zM183 323.188l-18.4-11.563h36.8L183 323.188z" fill="#5A51FF"/>
</svg>
